<mxfile host="app.diagrams.net" modified="2022-04-21T19:39:20.820Z" agent="5.0 (Windows)" etag="e4QipIW1YVI6TqolKOhc" version="17.4.6" type="github">
  <diagram id="lXGdWoHVhPfi1BwNDx_L" name="Page-1">
    <mxGraphModel dx="1824" dy="540" grid="1" gridSize="10" guides="1" tooltips="1" connect="1" arrows="1" fold="1" page="1" pageScale="1" pageWidth="850" pageHeight="1100" math="0" shadow="0">
      <root>
        <mxCell id="0" />
        <mxCell id="1" parent="0" />
        <mxCell id="k3ygG-aGh2QlVqBcWJol-1" value="" style="rounded=0;whiteSpace=wrap;html=1;" vertex="1" parent="1">
          <mxGeometry x="-230" y="10" width="1160" height="570" as="geometry" />
        </mxCell>
        <mxCell id="k3ygG-aGh2QlVqBcWJol-2" value="Top Navigation Bar" style="rounded=0;whiteSpace=wrap;html=1;" vertex="1" parent="1">
          <mxGeometry x="-230" y="10" width="1160" height="50" as="geometry" />
        </mxCell>
        <mxCell id="k3ygG-aGh2QlVqBcWJol-3" value="Search Patients" style="text;html=1;strokeColor=none;fillColor=none;align=center;verticalAlign=middle;whiteSpace=wrap;rounded=0;" vertex="1" parent="1">
          <mxGeometry x="90" y="90" width="760" height="30" as="geometry" />
        </mxCell>
        <mxCell id="k3ygG-aGh2QlVqBcWJol-4" value="Facility" style="rounded=0;whiteSpace=wrap;html=1;" vertex="1" parent="1">
          <mxGeometry x="70" y="200" width="800" height="40" as="geometry" />
        </mxCell>
        <mxCell id="k3ygG-aGh2QlVqBcWJol-5" value="" style="strokeWidth=2;html=1;shape=mxgraph.flowchart.merge_or_storage;whiteSpace=wrap;" vertex="1" parent="1">
          <mxGeometry x="810" y="210" width="50" height="20" as="geometry" />
        </mxCell>
        <mxCell id="k3ygG-aGh2QlVqBcWJol-6" value="&lt;i&gt;Search by Name&lt;/i&gt;" style="rounded=0;whiteSpace=wrap;html=1;align=left;" vertex="1" parent="1">
          <mxGeometry x="70" y="140" width="800" height="40" as="geometry" />
        </mxCell>
        <mxCell id="k3ygG-aGh2QlVqBcWJol-7" value="&lt;div&gt;Search&lt;/div&gt;&lt;div&gt;&lt;br&gt;&lt;/div&gt;&lt;div&gt;Favorites&lt;br&gt;&lt;/div&gt;" style="rounded=0;whiteSpace=wrap;html=1;" vertex="1" parent="1">
          <mxGeometry x="-230" y="60" width="250" height="520" as="geometry" />
        </mxCell>
        <mxCell id="k3ygG-aGh2QlVqBcWJol-8" value="" style="rounded=0;whiteSpace=wrap;html=1;" vertex="1" parent="1">
          <mxGeometry x="-230" y="610" width="1160" height="570" as="geometry" />
        </mxCell>
        <mxCell id="k3ygG-aGh2QlVqBcWJol-9" value="Top Navigation Bar" style="rounded=0;whiteSpace=wrap;html=1;" vertex="1" parent="1">
          <mxGeometry x="-220" y="20" width="1160" height="50" as="geometry" />
        </mxCell>
        <mxCell id="k3ygG-aGh2QlVqBcWJol-10" value="Search Patients" style="text;html=1;strokeColor=none;fillColor=none;align=center;verticalAlign=middle;whiteSpace=wrap;rounded=0;" vertex="1" parent="1">
          <mxGeometry x="260" y="690" width="760" height="30" as="geometry" />
        </mxCell>
        <mxCell id="k3ygG-aGh2QlVqBcWJol-11" value="Facility" style="rounded=0;whiteSpace=wrap;html=1;" vertex="1" parent="1">
          <mxGeometry x="380" y="800" width="520" height="40" as="geometry" />
        </mxCell>
        <mxCell id="k3ygG-aGh2QlVqBcWJol-12" value="" style="strokeWidth=2;html=1;shape=mxgraph.flowchart.merge_or_storage;whiteSpace=wrap;" vertex="1" parent="1">
          <mxGeometry x="840" y="810" width="50" height="20" as="geometry" />
        </mxCell>
        <mxCell id="k3ygG-aGh2QlVqBcWJol-15" value="Top Navigation Bar" style="rounded=0;whiteSpace=wrap;html=1;" vertex="1" parent="1">
          <mxGeometry x="-230" y="610" width="1160" height="50" as="geometry" />
        </mxCell>
        <mxCell id="k3ygG-aGh2QlVqBcWJol-16" value="" style="rounded=0;whiteSpace=wrap;html=1;horizontal=1;verticalAlign=top;" vertex="1" parent="1">
          <mxGeometry x="-230" y="660" width="580" height="520" as="geometry" />
        </mxCell>
        <mxCell id="k3ygG-aGh2QlVqBcWJol-17" value="&lt;i&gt;Search by Name&lt;/i&gt;" style="rounded=0;whiteSpace=wrap;html=1;align=left;" vertex="1" parent="1">
          <mxGeometry x="380" y="740" width="520" height="40" as="geometry" />
        </mxCell>
        <mxCell id="k3ygG-aGh2QlVqBcWJol-18" value="Favorites" style="text;html=1;strokeColor=none;fillColor=none;align=center;verticalAlign=middle;whiteSpace=wrap;rounded=0;" vertex="1" parent="1">
          <mxGeometry x="-220" y="690" width="560" height="30" as="geometry" />
        </mxCell>
        <mxCell id="k3ygG-aGh2QlVqBcWJol-19" value="Patient 1" style="rounded=0;whiteSpace=wrap;html=1;" vertex="1" parent="1">
          <mxGeometry x="-200" y="745" width="520" height="150" as="geometry" />
        </mxCell>
        <mxCell id="k3ygG-aGh2QlVqBcWJol-20" value="Patient 2" style="rounded=0;whiteSpace=wrap;html=1;" vertex="1" parent="1">
          <mxGeometry x="-200" y="920" width="520" height="150" as="geometry" />
        </mxCell>
      </root>
    </mxGraphModel>
  </diagram>
</mxfile>
